<svg id="Layer_1" data-name="Layer 1" xmlns="http://www.w3.org/2000/svg" viewBox="0 0 128 121.47013"><defs><style>.cls-1{fill:#231f20;}</style></defs><title>CaRt-01</title><path class="cls-1" d="M36.59707,76.0719,115.22,75.91915a3.53883,3.53883,0,0,0,3.47334-2.91314l9.24858-51.55972a3.54678,3.54678,0,0,0-3.52425-4.17609l-91.87452.62131L29.91523,3.26494,3.60576,3.41768a3.61084,3.61084,0,1,0,.02033,7.22165l20.69723-.14261,8.556,59.50451c-13.47559,4.08446-14.2599,20.575-2.11863,26.6151a13.032,13.032,0,0,0,5.80583,1.32418h87.93268a3.369,3.369,0,0,0,3.37145-3.37144,3.84815,3.84815,0,0,0-1.12046-2.72981,3.90818,3.90818,0,0,0-2.73994-1.1204l-88.83916.15281c-6.24381-2.27144-6.60028-9.45231-2.55661-13.27192A5.84742,5.84742,0,0,1,36.59707,76.0719Zm82.91111-51.90606-7.2827,44.6335H40.06016l-6.11139-44.6335Z" transform="translate(0 -3.26494)"/><circle class="cls-1" cx="51.08264" cy="110.72483" r="10.7453"/><circle class="cls-1" cx="100.26142" cy="110.72483" r="10.7453"/></svg>