<svg id="Layer_1" data-name="Layer 1" xmlns="http://www.w3.org/2000/svg" viewBox="0 0 29.55 32.05047"><defs><style>.cls-1{fill:#929497;}</style></defs><title>تجهیزات پزشکی-04</title><path class="cls-1" d="M29.55,13.81a4.05237,4.05237,0,0,1-2.59,3.78v4.96A9.50042,9.50042,0,0,1,8,23.43c-4.71-.73-8-4.83-8-10.3V1.53A1.53141,1.53141,0,0,1,2.37.25a2.00741,2.00741,0,1,1,.87676,3.82L3.24,4.07a.91324.91324,0,0,1-.17-.01v9.07c0,4.33,2.62994,7.34,6.42,7.34,3.78,0,6.41-3.01,6.41-7.34V4.03a1.47639,1.47639,0,0,1-.38.04,2.01,2.01,0,0,1,0-4.02,2.09447,2.09447,0,0,1,1,.26A1.52083,1.52083,0,0,1,17.44,0a1.53643,1.53643,0,0,1,1.53,1.53v11.6c0,5.42-3.23,9.51-7.89,10.28a6.43876,6.43876,0,0,0,12.82-.86V17.54a4.05773,4.05773,0,1,1,5.65-3.73Z" transform="translate(0.00002 0.00001)"/></svg>