<svg id="Layer_1" data-name="Layer 1" xmlns="http://www.w3.org/2000/svg" viewBox="0 0 24.51632 32.03975">
    <defs>
        <style>.cls-1{fill:#929497;}.cls-2{fill:#fff;}</style>
    </defs>
    <title>مکمل غذایی-04</title>
    <path class="cls-1"
          d="M21.25012,32.03975H3.2629c-.118-.03155-.23545-.06569-.3542-.09423a3.72733,3.72733,0,0,1-2.90415-3.7624Q-.00344,23.007.00293,17.83077c0-2.16847-.00779-4.337.002-6.5054a5.83344,5.83344,0,0,1,4.60013-5.8381c.4004-.09572.818-.11934,1.23425-.17725V4.26757c-.47092,0-.917.001-1.36306-.00025-.5827-.00165-.74633-.16093-.74812-.73993C3.72534,2.61,3.733,1.69248,3.72434.77513A.81968.81968,0,0,1,4.07482,0H20.4382a.81959.81959,0,0,1,.35053.77514c-.00873.90692-.00182,1.814-.00352,2.721-.00116.61979-.15489.77038-.7797.77133-.44264.00067-.88528.00013-1.34048.00013V5.3304c.15684.01345.29968.02792.44283.03762a5.36224,5.36224,0,0,1,2.44924.75661,5.7939,5.7939,0,0,1,2.952,5.2633q.00511,5.95807.00072,11.91615c-.00035,1.70972.02172,3.42-.01358,5.129a3.46472,3.46472,0,0,1-1.7802,3.04006A8.98758,8.98758,0,0,1,21.25012,32.03975Z"
          transform="translate(0.00001)"/>
    <path class="cls-2"
          d="M10.67093,8.2668l3.29323.41905a2.70942,2.70942,0,0,1,2.107,1.56916,2.6508,2.6508,0,0,1,.22192,1.4455,2.68637,2.68637,0,0,1-1.024,1.78572,2.65265,2.65265,0,0,1-.53412.32528,2.69984,2.69984,0,0,1-1.45646.21785l-3.35565-.43614a.24794.24794,0,0,1-.18505-.10669.30024.30024,0,0,1-.0557-.20207l.68011-4.77689A.28187.28187,0,0,1,10.67093,8.2668Z"
          transform="translate(0.00001)"/>
    <path class="cls-2"
          d="M3.231,10.0283A2.67862,2.67862,0,0,1,6.24566,7.69945L9.59781,8.128a.29736.29736,0,0,1,.18511.10673.28484.28484,0,0,1,.0516.213l-.68013,4.77684a.26655.26655,0,0,1-.15947.20915.25525.25525,0,0,1-.15278.02408l-3.28569-.42249A2.6905,2.6905,0,0,1,3.231,10.0283Z"
          transform="translate(0.00001)"/>
    <path class="cls-2"
          d="M8.74347,23.16462a.26694.26694,0,0,1-.23709-.00119,2.83813,2.83813,0,0,1-.29406-.1662c-.011-.0041-.022-.00821-.02539-.01575a4.238,4.238,0,0,1,3.09193-7.74989l.02188.00818a3.339,3.339,0,0,1,.33034.086.276.276,0,0,1,.19151.34036.28667.28667,0,0,1-.34792.1949.22361.22361,0,0,0-.08427-.02529L8.68131,22.62884c.02534.01577.0473.024.07267.03968a.27269.27269,0,0,1-.01051.4961Z"
          transform="translate(0.00001)"/>
    <path class="cls-2"
          d="M9.0236,23.10062a.276.276,0,0,1,.34038-.19147c.03289.01234.06236.01707.08431.02528l2.71659-6.79649a.46578.46578,0,0,1-.07267-.03968.27417.27417,0,1,1,.251-.48737,4.245,4.245,0,0,1-.15748,7.641,4.259,4.259,0,0,1-2.97819.19253A.27523.27523,0,0,1,9.0236,23.10062Z"
          transform="translate(0.00001)"/>
    <path class="cls-2"
          d="M19.12185,26.51444l-2.21558,2.46519a2.72584,2.72584,0,0,1-.88667.64967,2.57339,2.57339,0,0,1-.97547.23518,2.68832,2.68832,0,0,1-2.135-4.48582l2.26557-2.51524a.2971.2971,0,0,1,.18834-.08581.27848.27848,0,0,1,.20493.07037l3.54184,3.28074A.271.271,0,0,1,19.12185,26.51444Z"
          transform="translate(0.00001)"/>
    <path class="cls-2"
          d="M22.63214,21.3305a2.6182,2.6182,0,0,1-.653,1.92607l-2.1806,2.47651a.27818.27818,0,0,1-.09229.06932.21017.21017,0,0,1-.09821.01748.25065.25065,0,0,1-.201-.07217l-3.49182-3.29442a.28315.28315,0,0,1-.01916-.39157l2.13959-2.43057a2.5549,2.5549,0,0,1,1.81063-.86137,2.63618,2.63618,0,0,1,1.90528.70574A2.70635,2.70635,0,0,1,22.63214,21.3305Z"
          transform="translate(0.00001)"/>
</svg>