<?xml version="1.0" encoding="utf-8"?>
<!-- Generator: Adobe Illustrator 23.1.0, SVG Export Plug-In . SVG Version: 6.00 Build 0)  -->
<svg version="1.1" id="Layer_1" xmlns="http://www.w3.org/2000/svg" xmlns:xlink="http://www.w3.org/1999/xlink" x="0px" y="0px"
	 viewBox="0 0 26.7 32" style="enable-background:new 0 0 26.7 32;" xml:space="preserve">
<style type="text/css">
	.st0{fill:#929497;}
</style>
<title>داروخانه مرکزی جمالزاده</title>
<path class="st0" d="M24.1,2.4l2.2,1.1c-0.2,0.6-0.7,1.1-1.3,1.3c-0.7,0.3-1.5,0.2-2.2-0.1c-0.5-0.2-0.9-0.5-1.3-0.7
	c-2.9-1.9-6.4-2.9-9.9-2.7c-1,0.1-2,0.2-3,0.6c-2.5,0.7-4.3,3-4.5,5.6c-0.2,2.6,0.5,5.2,2,7.4c1.7,2.5,3.7,4.7,6,6.6
	c1,0.9,2,1.7,3.1,2.5c-1.9,1.7-2.6,4.5-1.7,6.9c-1.1-1-2.1-1.9-3.1-2.9c-2.7-2.4-5.1-5.1-7.2-8c-1.4-2-2.4-4.2-3-6.5
	C-0.7,9.3,1.1,5,4.7,2.7C7,1.2,9.5,0.3,12.2,0.1c4-0.4,8.1,0.4,11.7,2.2C24,2.4,24.1,2.4,24.1,2.4c-0.1,0-0.1,0-0.2,0
	c-0.4-0.1-0.8,0.2-0.8,0.6c-0.1,0.4,0.2,0.7,0.6,0.8c0.4,0.1,0.7-0.1,0.8-0.5C24.6,2.9,24.4,2.7,24.1,2.4z"/>
<path class="st0" d="M14.8,32c-1.3-2-1.2-4.5,0.2-6.4c1.2-1.5,2.6-2.8,4-4.2c1.5-1.6,3.1-3.2,4.6-4.9c0.5-0.6,0.9-1.3,1.2-2
	c0.1-0.3,0.2-0.7,0.2-1.1c1.7,1.4,2.3,3.7,1.5,5.8c-0.4,1.2-1.1,2.2-1.9,3.1c-3.2,3.2-6.3,6.4-9.5,9.6C14.9,31.9,14.8,32,14.8,32z"
	/>
<path class="st0" d="M25.5,13.2c-1.1-1-2.6-1.6-4.1-1.4c-2.9,0-5.9,0-8.8-0.1c-1.4,0.1-2.7-0.1-4-0.6c-1.6-0.8-2.8-2.3-3.3-4
	c0.1,0,0.2,0,0.3,0c4,0,8,0,12,0.1c1.3,0,2.7,0.1,4,0.5C24,8.4,25.5,10,25.5,13.2z"/>
</svg>
