<svg id="Layer_1" data-name="Layer 1" xmlns="http://www.w3.org/2000/svg" viewBox="0 0 29.2029 32.00001">
    <defs>
        <style>.cls-1{fill:#929497;}.cls-2{fill:#fff;}</style>
    </defs>
    <title>آرایش و بهداشتی-04</title>
    <path class="cls-1" d="M11.32806,9.85961v.0262h-.507l.02624-.0262Z" transform="translate(-0.00004 0)"/>
    <path class="cls-1"
          d="M27.12263,17.49029a9.92465,9.92465,0,0,1-9.9208,9.92081,10.15275,10.15275,0,0,1-1.87924-.17483V17.21058H7.28107v-.08739h6.136V9.85961h-2.089V9.48377a9.92362,9.92362,0,0,1,15.79457,8.00652Z"
          transform="translate(-0.00004 0)"/>
    <path class="cls-1" d="M11.32806,9.85961v.0262H8.01532c.0087-.0087.0087-.01745.01745-.0262Z"
          transform="translate(-0.00004 0)"/>
    <path class="cls-1"
          d="M29.20294,17.61267A12.00428,12.00428,0,0,1,17.20183,29.61373a10.61146,10.61146,0,0,1-1.91423-.15732,2.73123,2.73123,0,0,0,.035-.3846V27.23627a10.15275,10.15275,0,0,0,1.87924.17483A9.92516,9.92516,0,1,0,11.32806,9.48377V7.14125A12.00965,12.00965,0,0,1,29.20294,17.61267Z"
          transform="translate(-0.00004 0)"/>
    <path class="cls-2"
          d="M27.12263,17.49029a9.92465,9.92465,0,0,1-9.9208,9.92081,10.15275,10.15275,0,0,1-1.87924-.17483V17.21058H5.20077v-.08739h8.21638V9.85961H11.32806V9.48377a9.92362,9.92362,0,0,1,15.79457,8.00652Z"
          transform="translate(-0.00004 0)"/>
    <path class="cls-1"
          d="M15.32259,16.21058V29.07181a2.73123,2.73123,0,0,1-.035.3846A2.91011,2.91011,0,0,1,12.3944,32H3.269a3.26226,3.26226,0,0,1-3.269-3.25553V16.21058Z"
          transform="translate(-0.00004 0)"/>
    <polygon class="cls-1"
             points="13.417 9.86 13.417 17.123 2.264 17.123 2.264 9.86 4.283 9.86 4.283 9.886 11.328 9.886 11.328 9.86 13.417 9.86"/>
    <rect class="cls-1" x="4.28296" y="9.85961" width="7.04506" height="0.02619"/>
    <path class="cls-1" d="M11.32806,0V9.85961H4.283V3.32154A3.32747,3.32747,0,0,1,7.61323,0Z"
          transform="translate(-0.00004 0)"/>
    <rect class="cls-1" x="4.28296" y="9.85961" width="7.04506" height="0.02619"/>
</svg>