<svg id="Layer_1" data-name="Layer 1" xmlns="http://www.w3.org/2000/svg" width="24" height="24" viewBox="0 0 24 24"><defs><style>.cls-1{fill:#949494;fill-rule:evenodd;}</style></defs><title>Icon Darukade</title><path class="cls-1" d="M2,7c0-.6.6-1,1.4-1H20.6c.8,0,1.4.4,1.4,1s-.6,1-1.4,1H3.4C2.6,8,2,7.6,2,7Z"/><path class="cls-1" d="M2,12c0-.6.6-1,1.4-1H20.6c.8,0,1.4.4,1.4,1s-.6,1-1.4,1H3.4C2.6,13,2,12.6,2,12Z"/><path class="cls-1" d="M2,17c0-.6.6-1,1.4-1H20.6c.8,0,1.4.4,1.4,1s-.6,1-1.4,1H3.4C2.6,18,2,17.6,2,17Z"/></svg>