<svg id="Layer_1" data-name="Layer 1" xmlns="http://www.w3.org/2000/svg" viewBox="0 0 24.51867 32.03998"><defs><style>.cls-1{fill:#929497;}</style></defs><title>مکمل ورزشی-04</title><path class="cls-1" d="M24.51,23.3V11.39a5.81168,5.81168,0,0,0-2.95-5.27,5.47765,5.47765,0,0,0-2.45-.75c-.15-.01-.29-.03-.44-.04V4.27h1.34c.62,0,.77-.15.78-.76995,0-.91-.00995-1.82,0-2.72A.817.817,0,0,0,20.44,0H4.07a.83751.83751,0,0,0-.35.78c.01.91.01,1.83.01,2.75,0,.58.16.74.75.74H5.84V5.31a12.13959,12.13959,0,0,0-1.23.18A5.84177,5.84177,0,0,0,0,11.33V28.18a3.74076,3.74076,0,0,0,2.91,3.77c.12006.02.23.06.35.09H21.25a10.13182,10.13182,0,0,0,1.47-.57,3.46525,3.46525,0,0,0,1.78-3.04C24.53,26.72,24.51,25.01,24.51,23.3Zm-5.63-.86C15.75,25.84,7.59,23.8,7.59,23.8l-2.54.93V17.59c1.86-1.31,4.13.73,4.13.73,3.02-1.54,5.37.66,5.99,1.35l-1.64-1.9C14.03,15.92,12.26,13.7,12.26,13.7l-2.13,1.12a1.064,1.064,0,0,1-1.17-.13l-.1-.09a1.22973,1.22973,0,0,1-.4-1.25l.29-1.21a1.10059,1.10059,0,0,1,1.07-.85h3.01a1.49361,1.49361,0,0,1,.91.31,19.43285,19.43285,0,0,1,5.37,6.04A3.65442,3.65442,0,0,1,18.88,22.44Z" transform="translate(0.00212 -0.00002)"/></svg>