<svg id="Layer_1" data-name="Layer 1" xmlns="http://www.w3.org/2000/svg" viewBox="0 0 22.70657 32"><defs><style>.cls-1{fill:#929497;}</style></defs><title>مادر و کودک-04</title><path class="cls-1" d="M10.18789,12.64442,2.63973,21.09631,1.05458,18.91852A5.54134,5.54134,0,0,1,10.01753,12.4Z" transform="translate(0.00137 0)"/><path class="cls-1" d="M21.24716,20.25926,10.76569,32,3.85456,22.4889l.59258-.65927L12.68419,12.6a5.74434,5.74434,0,0,1,8.563,7.65928h0Z" transform="translate(0.00137 0)"/><path class="cls-1" d="M6.77308,1.81478a3.4815,3.4815,0,1,0,3.4815,3.4815h0A3.4822,3.4822,0,0,0,6.77308,1.81478Z" transform="translate(0.00137 0)"/><path class="cls-1" d="M16.862,0A4.62593,4.62593,0,1,0,21.4842,4.62964h0A4.63452,4.63452,0,0,0,16.862,0Z" transform="translate(0.00137 0)"/></svg>