<svg id="Layer_1" data-name="Layer 1" xmlns="http://www.w3.org/2000/svg" viewBox="0 0 200 200"><defs><style>.cls-1,.cls-5{fill:#fff;}.cls-1,.cls-3{stroke:#141414;stroke-width:2px;}.cls-1{stroke-miterlimit:10;}.cls-2{fill:#61b537;}.cls-3{fill:none;stroke-linecap:round;stroke-linejoin:round;}.cls-4{fill:#141414;}</style></defs><title>No order yet</title><path class="cls-1" d="M168.74,169.9l-84.49-9.05a7.75,7.75,0,0,1-6.88-8.33L86.08,48a7.74,7.74,0,0,1,8-7.09l78.87,3h9.25a7.74,7.74,0,0,1,7.73,7.32l5.85,108.24a7.75,7.75,0,0,1-6.77,8.1l-18.49,2.31A7.57,7.57,0,0,1,168.74,169.9Z"/><path class="cls-2" d="M174.71,50.62V158.4a2.94,2.94,0,0,0,2.94,2.94,2.7,2.7,0,0,0,.49,0l5.39-.92c5.67-1,9.77-1.39,9.29-9.14l-5.75-94c-.29-4.84-3.07-8.71-6.62-9.21l-2.39-.33a2.93,2.93,0,0,0-3.32,2.48A3.25,3.25,0,0,0,174.71,50.62Z"/><line class="cls-3" x1="171.3" y1="45.58" x2="171.3" y2="155.07"/><path class="cls-3" d="M112.86,41.13s.91-26.14,28.08-20.85a19.5,19.5,0,0,1,10,5c3.3,3.2,6.52,8.61,6.21,17.43"/><circle class="cls-4" cx="103.53" cy="83.5" r="3.79"/><circle class="cls-4" cx="128.06" cy="83.5" r="3.79"/><path class="cls-3" d="M126.93,106.67c-.73-4.52-5.5-8-11.27-8a11,11,0,0,0-10.4,7.43"/><path class="cls-1" d="M27.63,180.74l69.86-7.48a6.4,6.4,0,0,0,5.69-6.89L96,79.94a6.4,6.4,0,0,0-6.62-5.86L24.15,76.59H16.5a6.4,6.4,0,0,0-6.39,6L5.27,172.13a6.41,6.41,0,0,0,5.6,6.69l15.29,1.91A6,6,0,0,0,27.63,180.74Z"/><path class="cls-2" d="M22.7,82.13v89.1a2.43,2.43,0,0,1-2.45,2.43,2.56,2.56,0,0,1-.39,0l-4.46-.76c-4.68-.8-8.07-1.15-7.68-7.56l4.76-77.7c.24-4,2.54-7.19,5.47-7.61l2-.28a2.43,2.43,0,0,1,2.73,2.09C22.69,81.92,22.7,82,22.7,82.13Z"/><line class="cls-3" x1="25.52" y1="77.96" x2="25.52" y2="168.48"/><path class="cls-3" d="M73.84,74.28s-.76-21.61-24-17.21a16.88,16.88,0,0,0-8.54,4.12C38.47,63.84,35.71,68.32,36,75.6"/><circle class="cls-4" cx="49.56" cy="109.82" r="3.63"/><circle class="cls-5" cx="47.87" cy="109.69" r="1.48"/><circle class="cls-5" cx="50.94" cy="110.57" r="0.96"/><circle class="cls-4" cx="69.91" cy="108.56" r="3.63"/><circle class="cls-5" cx="68.22" cy="108.43" r="1.48"/><circle class="cls-5" cx="71.52" cy="109.55" r="1.08"/><path class="cls-3" d="M51.85,129c.6-3.73,4.55-6.62,9.32-6.62a9.09,9.09,0,0,1,8.6,6.15"/></svg>