<svg id="Layer_1" data-name="Layer 1" xmlns="http://www.w3.org/2000/svg" viewBox="0 0 20 19.24174"><defs><style>.cls-1{fill:#231f20;stroke:#231f20;stroke-miterlimit:10;stroke-width:0.36039px;}</style></defs><title>2</title><path class="cls-1" d="M14.283,9.758a5.58022,5.58022,0,1,0-.70779.68709,8.03674,8.03674,0,0,1,5.33885,7.382c0,.2355-.01165.4723-.03494.7078H1.11961c-.022-.2355-.03365-.4723-.03365-.7078A7.59855,7.59855,0,0,1,3.59783,12.221a.36433.36433,0,0,0,.02792-.50442h0a.53161.53161,0,0,0-.77-.04135A8.47015,8.47015,0,0,0,.1802,17.82711a8.31885,8.31885,0,0,0,.09187,1.228l.05693.38559H19.6697l.05823-.38559a8.32021,8.32021,0,0,0,.09187-1.228A8.88575,8.88575,0,0,0,14.283,9.758Zm-4.2157,1.03A4.66147,4.66147,0,1,1,14.7281,6.1272,4.66634,4.66634,0,0,1,10.06728,10.788Z" transform="translate(0 -0.37913)"/></svg>